<svg xmlns="http://www.w3.org/2000/svg" width="1920" height="229"><g fill="none" fill-rule="evenodd"><path fill="#DC951F" d="M0 229l25.175-.001L0 211.194"/><path fill="#EA9E21" d="M0 193.96L181 82 0 46.74"/><path fill="#DC951F" d="M0 198.954v12.24l25.152 17.79 220.77.073L226 146"/><path fill="#E19820" d="M0 193.96v4.994L226 146l-45-64"/><path fill="#DF971F" d="M320.847 229.109L226 146l19.938 83.127"/><path fill="#EDA021" d="M226 146L370 0 181 82"/><path fill="#E39A20" d="M411.124 229.022L370 0 226 146l94.766 83.038"/><path fill="#EDA021" d="M552.458 229.008L620 178 370 0l41.129 229.045"/><path fill="#E89D21" d="M617.218 228.997L620 178l-67.548 51.013"/><path fill="#E0971F" d="M691.807 229L620 178l-2.782 51.005"/><path fill="#E59B20" d="M845.327 229.01L892 159l-272 19 71.816 51.006"/><path fill="#D7911E" d="M902.647 228.998L892 159l-46.656 69.984"/><path fill="#DA931F" d="M936.688 229.012L892 159l10.646 69.992"/><path fill="#DC951F" d="M1095.647 229.004L892 159l44.67 69.984"/><path fill="#D5901E" d="M1364.421 229.022L1388 173l-181.66 56.012"/><path fill="#E59B20" d="M1388 173l-116-54-141.959 110h76.338"/><path fill="#EA9E21" d="M1388 173l103-44-219-10"/><path fill="#DA931F" d="M1478.587 229.012L1388 173l-23.601 56.076"/><path fill="#D8921E" d="M1513.397 228.987L1491 129l-103 44 90.524 55.973"/><path fill="#E09820" d="M1545.514 228.996L1677 105l-186 24 22.401 100.006"/><path fill="#DC951F" d="M1719.893 228.993L1777 176l-175.384 53.023"/><path fill="#DA931F" d="M1777 176l-100-71-131.49 124 56.147.01"/><path fill="#D8921E" d="M1761.814 228.99L1777 176l-57.087 52.974"/><path fill="#DE971F" d="M1777 176l91.82 53.015H1920V46.74L1777 176zm91.82 53.016L1777 176l-15.208 53.065 107.029-.05z"/></g></svg>